<?xml version="1.0" encoding="utf-8"?>
<!-- Generator: Adobe Illustrator 15.0.0, SVG Export Plug-In . SVG Version: 6.00 Build 0)  -->
<!DOCTYPE svg PUBLIC "-//W3C//DTD SVG 1.1//EN" "http://www.w3.org/Graphics/SVG/1.1/DTD/svg11.dtd">
<svg version="1.1" id="Layer_1" xmlns="http://www.w3.org/2000/svg" xmlns:xlink="http://www.w3.org/1999/xlink" x="0px" y="0px"
	 width="187px" height="158.078px" viewBox="0 0 187 158.078" enable-background="new 0 0 187 158.078" xml:space="preserve">
<g>
	<g opacity="0.8">
		<g>
			<path d="M146.178,51.644C136.063,31.392,115.135,17.443,91,17.443S45.938,31.392,35.822,51.644H146.178z"/>
			<path d="M35.769,106.434C45.865,126.742,66.823,140.738,91,140.738c24.178,0,45.135-13.996,55.23-34.305H35.769L35.769,106.434z"
				/>
		</g>
		<g>
			<path d="M26.332,51.644h7.312C43.907,30.282,65.759,15.498,91,15.498c25.242,0,47.093,14.784,57.357,36.146h12.312
				c-2.011-1.47-2.528-4.077-1.028-6.659c1.98-3.417,0.373-6.205-3.578-6.198c-3.951,0.01-6.176-3.057-4.949-6.81
				c1.229-3.754-0.926-6.146-4.785-5.317c-3.861,0.831-6.68-1.704-6.258-5.632c0.423-3.927-2.184-5.82-5.789-4.206
				c-3.604,1.615-6.885-0.279-7.287-4.21c-0.406-3.928-3.35-5.237-6.538-2.909s-6.793,1.158-8.009-2.602
				c-1.213-3.76-4.358-4.428-6.995-1.487c-2.64,2.94-6.405,2.545-8.372-0.879c-1.971-3.426-5.188-3.426-7.155,0
				c-1.968,3.425-5.735,3.82-8.372,0.879c-2.638-2.94-5.787-2.272-7,1.487c-1.212,3.759-4.815,4.93-8.006,2.602
				c-3.19-2.328-6.132-1.019-6.536,2.909c-0.405,3.931-3.685,5.825-7.291,4.21c-3.605-1.615-6.21,0.278-5.789,4.206
				c0.421,3.929-2.394,6.463-6.256,5.632c-3.861-0.829-6.016,1.563-4.787,5.317c1.229,3.753-0.998,6.82-4.947,6.81
				c-3.951-0.007-5.561,2.781-3.578,6.198C28.86,47.567,28.342,50.174,26.332,51.644z"/>
			<path d="M160.668,106.434h-12.264c-10.243,21.416-32.122,36.25-57.404,36.25c-25.281,0-47.16-14.834-57.404-36.25h-7.264
				c2.011,1.469,2.528,4.075,1.03,6.657c-1.982,3.418-0.373,6.205,3.578,6.199c3.949-0.011,6.176,3.058,4.947,6.81
				c-1.229,3.754,0.926,6.146,4.787,5.317c3.863-0.832,6.677,1.703,6.256,5.631c-0.421,3.929,2.184,5.82,5.789,4.207
				c3.605-1.614,6.885,0.279,7.291,4.209c0.404,3.929,3.345,5.238,6.536,2.91s6.794-1.158,8.006,2.603
				c1.213,3.758,4.362,4.428,7,1.485c2.637-2.938,6.404-2.545,8.372,0.879c1.967,3.427,5.188,3.427,7.155,0
				c1.967-3.424,5.733-3.819,8.372-0.879c2.637,2.94,5.785,2.272,6.998-1.485c1.213-3.761,4.816-4.931,8.006-2.603
				s6.132,1.019,6.538-2.91c0.403-3.93,3.685-5.823,7.289-4.209c3.604,1.615,6.21-0.278,5.79-4.207
				c-0.422-3.928,2.394-6.463,6.255-5.631c3.862,0.828,6.017-1.563,4.788-5.317c-1.229-3.752,0.998-6.817,4.947-6.81
				c3.951,0.006,5.56-2.781,3.578-6.199C158.141,110.509,158.657,107.902,160.668,106.434z"/>
		</g>
	</g>
	<polygon opacity="0.8" enable-background="new    " points="184.439,52.934 93.5,52.934 2.561,52.934 23.561,79.039 2.561,105.145 
		93.5,105.145 184.439,105.145 163.438,79.039 	"/>
</g>
<text transform="matrix(1 0 0 1 33.436 81.873)" fill="#FFFFFF" font-family="'MicrosoftYaHei'" font-size="12">         </text>
<text transform="matrix(1 0 0 1 48.5 44.2881)" fill="#FFFFFF" font-family="'MicrosoftYaHei'" font-size="10">   </text>
<text transform="matrix(1 0 0 1 57.377 44.2881)" fill="#FFFFFF" font-family="'MicrosoftYaHei'" font-size="12">Internet cafe</text>
<text transform="matrix(1 0 0 1 68.667 125.623)" fill="#FFFFFF" font-family="'MicrosoftYaHei'" font-size="10">  </text>
<text transform="matrix(1 0 0 1 74.585 125.623)" fill="#FFFFFF" font-family="'MicrosoftYaHei'" font-size="14">2016</text>
<text transform="matrix(1 0 0 1 30.436 91.3721)" fill="#FFFFFF" font-family="'MicrosoftYaHei'" font-size="36">尚 网 鸟</text>
</svg>
